<svg width="21" height="20" viewBox="0 0 21 20" fill="none" xmlns="http://www.w3.org/2000/svg">
<g clip-path="url(#clip0_7_728)">
<path d="M14.8333 17.5V15.8333C14.8333 14.9493 14.4821 14.1014 13.857 13.4763C13.2318 12.8512 12.384 12.5 11.4999 12.5H4.83327C3.94922 12.5 3.10137 12.8512 2.47625 13.4763C1.85113 14.1014 1.49994 14.9493 1.49994 15.8333V17.5M19.8333 17.5V15.8333C19.8327 15.0948 19.5869 14.3773 19.1344 13.7936C18.6819 13.2099 18.0484 12.793 17.3333 12.6083M13.9999 2.60833C14.717 2.79192 15.3525 3.20892 15.8063 3.79359C16.2601 4.37827 16.5065 5.09736 16.5065 5.8375C16.5065 6.57764 16.2601 7.29673 15.8063 7.88141C15.3525 8.46608 14.717 8.88308 13.9999 9.06667M11.4999 5.83333C11.4999 7.67428 10.0076 9.16667 8.1666 9.16667C6.32566 9.16667 4.83327 7.67428 4.83327 5.83333C4.83327 3.99238 6.32566 2.5 8.1666 2.5C10.0076 2.5 11.4999 3.99238 11.4999 5.83333Z" stroke="#17B270" stroke-width="2" stroke-linecap="round" stroke-linejoin="round"/>
</g>
<defs>
<clipPath id="clip0_7_728">
<rect width="20" height="20" fill="white" transform="translate(0.666626)"/>
</clipPath>
</defs>
</svg>
