<svg width="21" height="20" viewBox="0 0 21 20" fill="none" xmlns="http://www.w3.org/2000/svg">
<g clip-path="url(#clip0_7_730)">
<path d="M14.5 17.5V15.8333C14.5 14.9493 14.1488 14.1014 13.5236 13.4763C12.8985 12.8512 12.0507 12.5 11.1666 12.5H4.49996C3.6159 12.5 2.76806 12.8512 2.14294 13.4763C1.51782 14.1014 1.16663 14.9493 1.16663 15.8333V17.5M19.5 17.5V15.8333C19.4994 15.0948 19.2536 14.3773 18.8011 13.7936C18.3486 13.2099 17.7151 12.793 17 12.6083M13.6666 2.60833C14.3836 2.79192 15.0192 3.20892 15.473 3.79359C15.9268 4.37827 16.1732 5.09736 16.1732 5.8375C16.1732 6.57764 15.9268 7.29673 15.473 7.88141C15.0192 8.46608 14.3836 8.88308 13.6666 9.06667M11.1666 5.83333C11.1666 7.67428 9.67424 9.16667 7.83329 9.16667C5.99234 9.16667 4.49996 7.67428 4.49996 5.83333C4.49996 3.99238 5.99234 2.5 7.83329 2.5C9.67424 2.5 11.1666 3.99238 11.1666 5.83333Z" stroke="#EB3D38" stroke-width="2" stroke-linecap="round" stroke-linejoin="round"/>
</g>
<defs>
<clipPath id="clip0_7_730">
<rect width="20" height="20" fill="white" transform="translate(0.333252)"/>
</clipPath>
</defs>
</svg>
