<svg width="20" height="21" viewBox="0 0 20 21" fill="none" xmlns="http://www.w3.org/2000/svg">
<path d="M16.6667 10.4103C16.6667 14.0922 13.6819 17.077 10 17.077M16.6667 10.4103C16.6667 6.72843 13.6819 3.74366 10 3.74366M16.6667 10.4103H18.3334M10 17.077C6.31812 17.077 3.33335 14.0922 3.33335 10.4103M10 17.077V18.7437M3.33335 10.4103C3.33335 6.72843 6.31812 3.74366 10 3.74366M3.33335 10.4103H1.66669M10 3.74366V2.077M12.5 10.4103C12.5 11.791 11.3807 12.9103 10 12.9103C8.61931 12.9103 7.50002 11.791 7.50002 10.4103C7.50002 9.02962 8.61931 7.91033 10 7.91033C11.3807 7.91033 12.5 9.02962 12.5 10.4103Z" stroke="#171717" stroke-width="2" stroke-linecap="round" stroke-linejoin="round"/>
</svg>
